<svg width="1440" height="472" viewBox="0 0 1440 472" fill="none" xmlns="http://www.w3.org/2000/svg">
  <g opacity="0.05">
    <path d="M1035.46 927.8C1039.02 931.356 1044.8 931.36 1048.3 927.75C1133.78 839.739 1190.64 727.872 1211.3 606.834C1232.46 482.803 1214.56 355.264 1160.07 241.835C1105.58 128.407 1017.18 34.6876 907.088 -26.3765C796.996 -87.4406 670.646 -112.836 545.489 -99.0534C420.333 -85.2712 302.548 -32.992 208.406 50.5623C114.263 134.117 48.4093 244.822 19.9413 367.386C-8.5267 489.95 1.79608 618.324 49.4837 734.773C96.0204 848.412 175.899 945.222 278.502 1012.52C282.709 1015.28 288.343 1014.02 291.042 1009.77V1009.77C293.743 1005.53 292.48 999.895 288.271 997.131C188.86 931.857 111.466 838.013 66.3613 727.871C20.1044 614.916 10.0913 490.393 37.7053 371.506C65.3192 252.619 129.197 145.235 220.516 64.187C311.834 -16.8606 426.085 -67.5715 547.487 -80.9402C668.888 -94.309 791.449 -69.6758 898.237 -10.4436C1005.03 48.7886 1090.77 139.696 1143.63 249.722C1196.49 359.747 1213.85 483.46 1193.32 603.771C1173.3 721.083 1118.21 829.515 1035.41 914.854C1031.91 918.469 1031.9 924.24 1035.46 927.8V927.8Z" fill="white"/>
    <path d="M1051.29 909.515C1054.55 912.785 1059.85 912.787 1063.07 909.469C1157.13 812.271 1212.74 683.951 1219.29 548.48C1225.98 410.217 1181.1 274.408 1093.39 167.511C1005.67 60.6139 881.411 -9.71477 744.81 -29.7741C608.209 -49.8334 469.053 -18.1867 354.451 59.0008C239.848 136.188 158.008 253.388 124.874 387.768C91.7392 522.148 109.684 664.084 175.211 785.924C240.739 907.763 349.156 1000.78 479.343 1046.86C606.906 1092 746.417 1088.91 871.735 1038.34C876.008 1036.62 878.006 1031.72 876.226 1027.47V1027.47C874.441 1023.21 869.536 1021.21 865.251 1022.94C743.759 1071.89 608.539 1074.85 484.891 1031.09C358.61 986.402 253.445 896.175 189.884 777.99C126.322 659.806 108.916 522.128 141.056 391.78C173.197 261.431 252.582 147.747 363.746 72.8753C474.91 -1.99657 609.892 -32.6939 742.394 -13.2363C874.897 6.2212 995.43 74.44 1080.51 178.13C1165.6 281.82 1209.13 413.555 1202.64 547.67C1196.29 679.008 1142.4 803.416 1051.25 897.681C1048.05 900.988 1048.04 906.258 1051.29 909.515V909.515Z" fill="white"/>
    <path d="M1061.79 883.448C1064.83 886.486 1069.77 886.489 1072.77 883.406C1147.47 806.655 1196.66 708.733 1213.5 602.976C1230.75 494.659 1213.18 383.677 1163.32 285.918C1113.46 188.159 1033.86 108.635 935.918 58.7306C837.972 8.82624 726.702 -8.90005 618.038 8.08931C509.373 25.0787 408.885 75.9126 330.958 153.314C253.031 230.715 201.662 330.716 184.204 439C166.745 547.284 184.093 658.299 233.763 756.154C282.26 851.698 359.144 929.913 453.827 980.181C457.625 982.197 462.322 980.684 464.291 976.861V976.861C466.266 973.025 464.747 968.319 460.937 966.293C369.203 917.529 294.715 841.712 247.713 749.114C199.533 654.195 182.706 546.51 199.641 441.474C216.575 336.439 266.404 239.439 341.992 164.359C417.581 89.2797 515.055 39.9708 620.46 23.4911C725.864 7.01144 833.796 24.2059 928.804 72.6132C1023.81 121.02 1101.02 198.158 1149.39 292.985C1197.75 387.811 1214.79 495.463 1198.06 600.531C1181.74 703.023 1134.1 797.93 1061.74 872.349C1058.73 875.446 1058.73 880.398 1061.79 883.448V883.448Z" fill="white"/>
    <path d="M1144.37 791.574C1147.95 793.087 1152.09 791.41 1153.55 787.806C1190.09 697.474 1197.65 597.929 1175.06 503.01C1151.93 405.807 1098.4 318.534 1022.26 253.903C946.119 189.273 851.352 150.661 751.762 143.692C654.512 136.887 557.623 160.603 474.55 211.442C471.236 213.47 470.258 217.822 472.332 221.107V221.107C474.408 224.393 478.752 225.366 482.069 223.338C562.608 174.101 656.52 151.137 750.781 157.733C847.384 164.493 939.307 201.946 1013.16 264.637C1087.02 327.329 1138.94 411.984 1161.38 506.271C1183.27 598.277 1175.97 694.764 1140.59 782.336C1139.13 785.937 1140.8 790.062 1144.37 791.574V791.574Z" fill="white"/>
    <path d="M417.13 262.104C414.59 259.163 410.142 258.837 407.24 261.424C374.416 290.697 345.87 324.446 322.44 361.679C320.371 364.967 321.425 369.297 324.74 371.318V371.318C328.058 373.34 332.384 372.284 334.456 368.994C357.124 333.009 384.722 300.384 416.442 272.07C419.341 269.482 419.669 265.044 417.13 262.104V262.104Z" fill="white"/>
    <path d="M1106.33 840.259C1109.66 841.666 1113.5 840.108 1114.86 836.757C1138.47 778.385 1149.19 715.562 1146.24 652.604C1143.19 587.465 1125.59 523.839 1094.72 466.408C1063.86 408.978 1020.53 359.203 967.91 320.747C917.054 283.579 858.777 257.899 797.101 245.443C793.559 244.728 790.141 247.078 789.48 250.632V250.632C788.82 254.183 791.162 257.592 794.7 258.308C854.457 270.404 910.92 295.3 960.2 331.316C1011.24 368.618 1053.27 416.899 1083.21 472.607C1113.14 528.315 1130.22 590.032 1133.18 653.217C1136.04 714.223 1125.67 775.1 1102.81 831.671C1101.45 835.019 1103 838.853 1106.33 840.259V840.259Z" fill="white"/>
    <path d="M1038.06 929.599C1041.63 933.717 1047.87 934.163 1051.93 930.526C1129.96 860.606 1190.22 773.002 1227.61 674.981C1266.18 573.884 1279.24 464.826 1265.64 357.469C1252.04 250.111 1212.2 147.768 1149.64 59.5033C1087.09 -28.761 1003.75 -100.222 907.008 -148.549C810.268 -196.876 703.112 -220.577 595.034 -217.554C486.956 -214.531 381.29 -184.876 287.398 -131.216C193.505 -77.5569 114.283 -1.54898 56.7498 90.0746C0.96537 178.913 -32.76 279.773 -41.6754 384.224C-42.1387 389.652 -38.0348 394.37 -32.6007 394.752V394.752C-27.1685 395.135 -22.4639 391.041 -21.9983 385.614C-13.3127 284.4 19.3901 186.67 73.4493 100.58C129.257 11.7046 206.102 -62.023 297.178 -114.073C388.254 -166.122 490.749 -194.888 595.585 -197.82C700.421 -200.753 804.362 -177.762 898.2 -130.885C992.038 -84.0079 1072.88 -14.6911 1133.56 70.9254C1194.24 156.542 1232.88 255.815 1246.08 359.952C1259.27 464.089 1246.6 569.875 1209.18 667.939C1172.94 762.931 1114.57 847.838 1038.98 915.63C1034.93 919.265 1034.49 925.486 1038.06 929.599V929.599Z" fill="white"/>
    <path d="M1056.54 912.93C1059.91 915.705 1064.9 915.221 1067.62 911.803C1112.63 855.311 1145.58 790.139 1164.38 720.321C1183.87 647.955 1187.72 572.261 1175.67 498.288C1163.63 424.314 1135.96 353.762 1094.52 291.334C1053.09 228.907 998.825 176.04 935.361 136.259C871.896 96.4786 800.687 70.6981 726.482 60.6372C652.277 50.5763 576.782 56.4662 505.031 77.9142C433.28 99.3621 366.922 135.875 310.383 185.018C255.832 232.433 211.631 290.554 180.501 355.749C178.62 359.688 180.361 364.383 184.324 366.206V366.206C188.291 368.031 192.981 366.288 194.866 362.346C225.056 299.198 267.893 242.899 320.745 196.961C375.588 149.292 439.955 113.874 509.553 93.0697C579.152 72.2651 652.382 66.5519 724.361 76.311C796.34 86.0701 865.413 111.077 926.973 149.665C988.533 188.252 1041.17 239.533 1081.36 300.087C1121.56 360.642 1148.39 429.078 1160.08 500.832C1171.76 572.586 1168.03 646.009 1149.12 716.205C1130.9 783.854 1099 847.007 1055.41 901.763C1052.69 905.179 1053.17 910.157 1056.54 912.93V912.93Z" fill="white"/>
  </g>
  <g opacity="0.05">
    <path d="M486.24 338.853C482.954 336.697 478.537 337.605 476.424 340.919C424.842 421.785 398.947 516.383 402.24 612.272C405.615 710.532 439.472 805.297 499.135 883.479C558.797 961.66 641.32 1019.4 735.304 1048.72C829.288 1078.04 930.094 1077.49 1023.8 1047.15C1117.5 1016.82 1199.47 958.187 1258.4 879.362C1317.32 800.538 1350.29 705.41 1352.73 607.12C1355.18 508.829 1327 412.227 1272.07 330.658C1218.47 251.054 1141.98 189.602 1052.75 154.327C1049.09 152.883 1044.98 154.736 1043.59 158.409V158.409C1042.19 162.091 1044.05 166.204 1047.71 167.654C1134.17 201.885 1208.29 261.458 1260.23 338.608C1313.51 417.73 1340.85 511.434 1338.48 606.776C1336.1 702.118 1304.12 794.392 1246.97 870.851C1189.81 947.311 1110.3 1004.18 1019.41 1033.61C928.514 1063.04 830.732 1063.57 739.567 1035.13C648.403 1006.69 568.356 950.68 510.483 874.844C452.611 799.008 419.769 707.085 416.496 611.774C413.304 518.841 438.376 427.158 488.325 348.763C490.442 345.44 489.534 341.016 486.24 338.853V338.853Z" fill="white"/>
    <path d="M477.003 355.348C473.991 353.363 469.934 354.199 467.999 357.244C411.284 446.498 388.953 553.487 405.329 658.191C422.043 765.052 477.879 861.879 561.959 929.809C646.039 997.739 752.342 1031.91 860.157 1025.66C967.973 1019.41 1069.58 973.186 1145.18 895.999C1220.78 818.811 1264.97 716.186 1269.13 608.115C1273.29 500.045 1237.12 394.27 1167.68 311.397C1098.23 228.523 1000.48 174.488 893.474 159.816C788.619 145.441 682.231 169.868 594.214 228.38C591.214 230.375 590.458 234.44 592.494 237.412V237.412C594.533 240.389 598.6 241.141 601.606 239.145C686.948 182.472 790.073 158.819 891.713 172.754C995.513 186.986 1090.33 239.4 1157.69 319.787C1225.05 400.174 1260.13 502.776 1256.1 607.605C1252.06 712.433 1209.2 811.979 1135.87 886.851C1062.53 961.723 963.977 1006.56 859.396 1012.62C754.815 1018.68 651.701 985.54 570.143 919.647C488.586 853.755 434.425 759.833 418.212 656.178C402.336 554.673 423.964 450.954 478.908 364.408C480.837 361.369 480.009 357.329 477.003 355.348V355.348Z" fill="white"/>
    <path d="M473.079 376.955C470.268 375.114 466.492 375.891 464.681 378.722C419.571 449.268 397.359 531.98 401.162 615.573C405.057 701.188 436.041 783.337 489.678 850.26C543.316 917.184 616.857 965.45 699.774 988.15C782.691 1010.85 870.732 1006.82 951.295 976.637C1031.86 946.454 1100.81 891.664 1148.28 820.113C1195.76 748.561 1219.31 663.915 1215.58 578.293C1211.86 492.671 1181.03 410.462 1127.52 343.435C1075.28 277.989 1004.02 230.293 923.543 206.8C920.318 205.859 916.965 207.757 916.062 210.992V210.992C915.154 214.242 917.061 217.607 920.3 218.554C998.277 241.365 1067.32 287.603 1117.95 351.028C1169.85 416.044 1199.75 495.787 1203.37 578.841C1206.98 661.894 1184.13 744 1138.08 813.406C1092.04 882.811 1025.15 935.956 947.006 965.234C868.861 994.512 783.461 998.421 703.031 976.402C622.602 954.383 551.267 907.564 499.239 842.648C447.21 777.733 417.156 698.048 413.378 615.002C409.692 533.994 431.194 453.839 474.867 385.452C476.686 382.603 475.907 378.807 473.079 376.955V376.955Z" fill="white"/>
    <path d="M424.323 460.322C421.344 459.73 418.445 461.665 417.897 464.652C404.166 539.556 414.101 616.927 446.398 685.991C479.471 756.716 534.267 815.035 602.804 852.452C671.341 889.869 750.038 904.431 827.433 894.015C903.01 883.845 973.49 850.376 1029.1 798.336C1031.32 796.261 1031.38 792.775 1029.27 790.59V790.59C1027.16 788.404 1023.68 788.345 1021.46 790.419C967.541 840.834 899.222 873.258 825.967 883.116C750.894 893.219 674.557 879.094 608.077 842.799C541.596 806.505 488.444 749.936 456.363 681.332C425.059 614.391 415.412 539.404 428.687 466.797C429.233 463.81 427.303 460.914 424.323 460.322V460.322Z" fill="white"/>
    <path d="M445.779 417.051C443.009 416.501 440.314 418.299 439.805 421.076C430.932 469.479 432.643 519.249 444.847 566.961C457.473 616.325 481.009 662.229 513.723 701.296C546.437 740.364 587.496 771.6 633.879 792.707C678.711 813.108 727.415 823.545 776.633 823.323C779.456 823.31 781.701 820.973 781.646 818.15V818.15C781.591 815.327 779.257 813.087 776.433 813.098C728.744 813.291 681.557 803.168 638.117 783.401C593.125 762.927 553.297 732.627 521.565 694.732C489.833 656.837 467.003 612.31 454.756 564.427C442.931 518.196 441.261 469.973 449.836 423.071C450.344 420.293 448.549 417.602 445.779 417.051V417.051Z" fill="white"/>
    <path d="M483.97 337.887C480.584 335.302 475.739 335.948 473.205 339.372C424.467 405.217 392.144 481.782 378.978 562.705C365.399 646.166 372.617 731.685 399.993 811.687C427.368 891.69 474.056 963.705 535.921 1021.36C597.785 1079.01 672.917 1120.51 754.662 1142.19C836.406 1163.88 922.239 1165.07 1004.56 1145.67C1086.88 1126.26 1163.14 1086.86 1226.6 1030.96C1290.05 975.047 1338.73 904.356 1368.34 825.146C1397.04 748.346 1406.95 665.834 1397.28 584.497C1396.78 580.267 1392.89 577.304 1388.67 577.87V577.87C1384.44 578.437 1381.49 582.319 1381.99 586.55C1391.32 665.372 1381.7 745.324 1353.89 819.748C1325.17 896.582 1277.95 965.152 1216.4 1019.38C1154.85 1073.61 1080.87 1111.83 1001.02 1130.65C921.17 1149.48 837.911 1148.32 758.619 1127.29C679.328 1106.25 606.449 1065.99 546.441 1010.07C486.432 954.151 441.145 884.295 414.591 806.693C388.036 729.091 381.035 646.137 394.206 565.18C406.965 486.762 438.269 412.562 485.467 348.736C488 345.31 487.356 340.472 483.97 337.887V337.887Z" fill="white"/>
    <path d="M472.442 353.568C469.422 351.978 465.681 353.135 464.136 356.178C438.578 406.526 423.634 461.609 420.256 518.01C416.756 576.469 425.761 635 446.673 689.702C467.585 744.404 499.922 794.018 541.528 835.236C583.134 876.455 633.053 908.33 687.955 928.735C742.857 949.141 801.481 957.609 859.917 953.574C918.353 949.539 975.259 933.094 1026.84 905.336C1078.42 877.578 1123.49 839.144 1159.04 792.598C1193.34 747.691 1218.02 696.227 1231.57 641.418C1232.39 638.105 1230.31 634.784 1226.99 634.015V634.015C1223.66 633.246 1220.35 635.319 1219.53 638.632C1206.37 691.73 1182.45 741.586 1149.21 785.098C1114.73 830.248 1071.01 867.528 1020.98 894.454C970.948 921.379 915.75 937.331 859.067 941.245C802.384 945.159 745.519 936.945 692.263 917.151C639.008 897.357 590.587 866.439 550.229 826.457C509.872 786.475 478.505 738.349 458.22 685.289C437.936 632.228 429.2 575.453 432.595 518.748C435.868 464.1 450.335 410.729 475.075 361.938C476.618 358.893 475.463 355.158 472.442 353.568V353.568Z" fill="white"/>
  </g>
</svg>
